# xmcd
#
# Track frame offsets:
# 150
# 15480
# 28967
# 54980
# 74487
# 89887
# 103837
# 111800
# 134817
# 149927
# 163782
# 187685
# 204957
# 224140
# 250000
# 282915
#
# Disc length: 4003 seconds
#
# Revision: 1
# Processed by: cddbd v1.4PL0 Copyright (c) Steve Scherf et al.
# Submitted via: CdCzar 4.3b
#
DISCID=020fa110
DTITLE=Various Artist - Wade In The Water v. 3: The Pioneering Composers
DYEAR=1900
DGENRE=blues
TTITLE0=Johnson, Lou Bell - Stand by Me
TTITLE1=Toshi Reagon - We'll Understand It Better By and By
TTITLE2=Reagon, Bernice Johnson - What Are They Doing in Heaven Today?
TTITLE3=Rev.Eugene Smallwood - Something Within
TTITLE4=Vails, Donald and the Celebration... - He'll Understand and Say Well Done
TTITLE5=Michelle Lanchester - Touch Me Lord Jesus
TTITLE6=Vails, Donald and the Celebration... - It's a Highway to Heaven (Walking up
TTITLE7=Smallwood, Rev. Eugene - Little Wooden Church on a Hill
TTITLE8=Michelle Lanchester - I Was Standing by the Bedside of a...
TTITLE9=Richard Allen Singers - How I Got Over
TTITLE10=Sweet Honey In The Rock - Speak to Me Jesus
TTITLE11=Boyer, Horace C. - Does Jesus Care?
TTITLE12=Sweet Honey In The Rock - Just a Closer Walk With Thee
TTITLE13=Vails, Donald and the Celebration... - God Is Still on the Throne
TTITLE14=Gloria Griffin - God Specializes
TTITLE15=Carolyn Bolger-Payne - Precious Lord
EXTD=
EXTT0=
EXTT1=
EXTT2=
EXTT3=
EXTT4=
EXTT5=
EXTT6=
EXTT7=
EXTT8=
EXTT9=
EXTT10=
EXTT11=
EXTT12=
EXTT13=
EXTT14=
EXTT15=
PLAYORDER=
